<?xml version="1.0" encoding="utf-8"?>
<!-- Generator: Adobe Illustrator 25.4.1, SVG Export Plug-In . SVG Version: 6.00 Build 0)  -->
<svg version="1.1" id="Layer_1" xmlns="http://www.w3.org/2000/svg" xmlns:xlink="http://www.w3.org/1999/xlink" x="0px" y="0px"
	 viewBox="0 0 100 100" style="enable-background:new 0 0 100 100;" xml:space="preserve">
<style type="text/css">
	.st0{fill:#FFFFFF;}
</style>
<path class="st0" d="M83,13H17c-2.2,0-4,1.8-4,4v6h-0.3c-1.2,0-2.2,1-2.2,2.2v13.6c0,1.2,1,2.2,2.2,2.2H13v19h-0.3
	c-1.2,0-2.2,1-2.2,2.2v13.6c0,1.2,1,2.2,2.2,2.2H13v5c0,2.2,1.8,4,4,4h66c2.2,0,4-1.8,4-4V17C87,14.8,85.2,13,83,13z M83,83H17v-5
	h0.3c1.2,0,2.2-1,2.2-2.2V62.2c0-1.2-1-2.2-2.2-2.2H17V41h0.3c1.2,0,2.2-1,2.2-2.2V25.2c0-1.2-1-2.2-2.2-2.2H17v-6h66V83z"/>
<path class="st0" d="M87.5,0h-75C5.6,0,0,5.6,0,12.5v74.9c0,7,5.6,12.6,12.5,12.6h74.9c6.9,0,12.5-5.6,12.5-12.5v-75
	C100,5.6,94.4,0,87.5,0z M93.9,12.5L93.9,12.5v75c0,3.6-2.9,6.5-6.5,6.5H12.5C8.9,94,6,91,6,87.4V12.5C6,8.9,8.9,6,12.5,6h75
	c1.7,0,3.4,0.7,4.6,1.9C93.3,9.1,93.9,10.7,93.9,12.5L93.9,12.5z"/>
<path class="st0" d="M31.1,57.2h1.2c-0.9,1.1-1.4,2.6-1.5,4c-0.1,1.9,0.7,3.8,2.1,5.2c1.3,1.3,3.1,2.1,4.9,2.1
	c1.6,0,3.1-0.5,4.3-1.5v1.2c0,3.9,3.1,7,7,7s7-3.1,7-7V67c1.2,1,2.7,1.5,4.3,1.5c1.8,0,3.5-0.7,4.8-2c1.3-1.2,2.1-3,2.2-4.8
	c0.1-1.7-0.5-3.3-1.5-4.6h1.2c3.9,0,7-3.1,7-7s-3.1-7-7-7h-1.2c0.9-1.1,1.4-2.6,1.5-4c0.1-1.9-0.7-3.8-2.1-5.2
	c-1.3-1.3-3.1-2.1-4.9-2.1c-1.6,0-3.1,0.5-4.3,1.5v-1.2c0-3.9-3.1-7-7-7s-7,3.1-7,7v1.2c-1.2-1-2.7-1.5-4.3-1.5
	c-1.8,0-3.5,0.7-4.8,2c-1.3,1.2-2.1,3-2.2,4.8c-0.1,1.7,0.5,3.3,1.5,4.6h-1.2c-3.9,0-7,3.1-7,7S27.2,57.2,31.1,57.2z M31.1,48.2h5.2
	c0.3-2.1,1.1-4,2.3-5.7l-2.2-2.2c-0.8-0.8-0.8-2.1,0-2.8c0.4-0.4,0.9-0.6,1.4-0.6s1,0.2,1.4,0.6l2.2,2.2c1.6-1.2,3.6-2,5.7-2.3v-5.2
	c0-1.1,0.9-2,2-2s2,0.9,2,2v5.2c2.1,0.3,4,1.1,5.7,2.3l2.2-2.2c0.4-0.4,0.9-0.6,1.4-0.6s1,0.2,1.4,0.6c0.8,0.8,0.8,2.1,0,2.8
	l-2.2,2.2c1.2,1.6,2,3.6,2.3,5.7h5.2c1.1,0,2,0.9,2,2s-0.9,2-2,2h-5.2c-0.3,2.1-1.1,4-2.3,5.7l2.2,2.2c0.8,0.8,0.8,2.1,0,2.8
	c-0.4,0.4-0.9,0.6-1.4,0.6s-1-0.2-1.4-0.6l-2.2-2.2c-1.6,1.2-3.6,2-5.7,2.3v5.2c0,1.1-0.9,2-2,2s-2-0.9-2-2V63
	c-2.1-0.3-4-1.1-5.7-2.3l-2.2,2.2c-0.4,0.4-0.9,0.6-1.4,0.6s-1-0.2-1.4-0.6c-0.8-0.8-0.8-2.1,0-2.8l2.2-2.2c-1.2-1.6-2-3.6-2.3-5.7
	h-5.2c-1.1,0-2-0.9-2-2S30,48.2,31.1,48.2z"/>
<path class="st0" d="M49.1,59.7c5.2,0,9.5-4.3,9.5-9.5s-4.3-9.5-9.5-9.5s-9.5,4.3-9.5,9.5S43.9,59.7,49.1,59.7z M49.1,44.7
	c3,0,5.5,2.5,5.5,5.5s-2.5,5.5-5.5,5.5s-5.5-2.5-5.5-5.5S46.1,44.7,49.1,44.7z"/>
</svg>
