<?xml version="1.0" encoding="utf-8"?>
<!-- Generator: Adobe Illustrator 24.0.1, SVG Export Plug-In . SVG Version: 6.00 Build 0)  -->
<svg version="1.1" id="Layer_1" xmlns="http://www.w3.org/2000/svg" xmlns:xlink="http://www.w3.org/1999/xlink" x="0px" y="0px"
	 viewBox="0 0 100 100" style="enable-background:new 0 0 100 100;" xml:space="preserve">
<style type="text/css">
	.st0{fill:#FF0000;}
</style>
<g>
	<path class="st0" d="M50.1,0L50.1,0c-27.6,0-50,22.4-50,50v0c0,27.6,22.4,50,50,50h0c27.6,0,50-22.4,50-50v0
		C100.1,22.4,77.7,0,50.1,0z M55.4,77.8c-1.4,1.1-3.2,2.4-5.3,2.4c-2.1,0-3.9-0.7-5.3-1.8c-1.4-1.3-2.4-3.1-2.4-5.1
		c0-2.1,0.7-3.8,2.1-4.9c1.4-1.1,3.5-2.1,5.6-2.1c2.1,0,3.9,0.7,5.3,1.8c1.4,1.1,2.1,3.1,2.1,4.9C57.5,74.7,56.8,76.7,55.4,77.8z
		 M55.7,60.4H44.6l-1.7-40.6h14.6L55.7,60.4z"/>
</g>
</svg>
