<?xml version="1.0" encoding="utf-8"?>
<!-- Generator: Adobe Illustrator 24.0.1, SVG Export Plug-In . SVG Version: 6.00 Build 0)  -->
<svg version="1.1" id="Layer_1" xmlns="http://www.w3.org/2000/svg" xmlns:xlink="http://www.w3.org/1999/xlink" x="0px" y="0px"
	 viewBox="0 0 25 25" style="enable-background:new 0 0 25 25;" xml:space="preserve">
<style type="text/css">
	.st0{fill:#666666;}
</style>
<g>
	<path class="st0" d="M13.5,2L13.5,2c0,0,0.3,2,0.3,2l0.1,0.9l0.9,0.3c0.4,0.1,0.9,0.3,1.3,0.5l0.8,0.4l0.7-0.6L19,4.4l0,0l0,0
		c0,0,0,0,0,0l1.5,1.5c0,0,0,0,0,0l0,0.1l0,0.1l-1.1,1.5l-0.6,0.7l0.4,0.8c0.2,0.4,0.4,0.8,0.5,1.3l0.3,0.9l0.9,0.1l1.9,0.2l0.1,0
		l0.1,0c0,0,0,0,0,0v2.1c0,0,0,0,0,0l-0.1,0l-0.1,0L21,13.7l-0.9,0.1l-0.3,0.9c-0.1,0.4-0.3,0.9-0.5,1.3l-0.4,0.8l0.6,0.7l1.2,1.5
		l0,0l0,0c0,0,0,0,0,0l-1.5,1.5c0,0,0,0,0,0l-0.1,0l-0.1,0l-1.5-1.1l-0.7-0.6l-0.8,0.4c-0.4,0.2-0.8,0.4-1.3,0.5l-0.9,0.3L13.8,21
		l-0.2,1.9l0,0.1l0,0.1c0,0,0,0,0,0h-2.1c0,0,0,0,0,0l0-0.1l0-0.1L11.3,21l-0.1-0.9l-0.9-0.3c-0.4-0.1-0.9-0.3-1.3-0.5l-0.8-0.4
		l-0.7,0.6L6,20.6l0,0l0,0c0,0,0,0,0,0l-1.5-1.5c0,0,0,0,0,0l0-0.1l0-0.1l1.1-1.5l0.6-0.7l-0.4-0.8c-0.2-0.4-0.4-0.8-0.5-1.3
		l-0.3-0.9L4,13.8l-1.9-0.2l-0.1,0l-0.1,0c0,0,0,0,0,0v-2.1c0,0,0,0,0,0l0.1,0l0.1,0L4,11.3l0.9-0.1l0.3-0.9C5.3,9.8,5.5,9.4,5.7,9
		l0.4-0.8L5.6,7.4L4.4,6l0,0l0,0c0,0,0,0,0,0l1.5-1.5c0,0,0,0,0,0l0.1,0l0.1,0l1.5,1.1l0.7,0.6l0.8-0.4c0.4-0.2,0.8-0.4,1.3-0.5
		l0.9-0.3L11.2,4l0.2-1.9l0-0.1l0-0.1c0,0,0,0,0,0H13.5 M13.5,0h-2.1c-1.1,0-1.9,0.8-2,1.9c0,0,0,0,0,0.1L9.2,3.4
		C8.9,3.5,8.6,3.7,8.3,3.8L7.1,2.9c0,0-0.1-0.1-0.1-0.1c0,0-0.1,0-0.1-0.1C6.6,2.5,6.2,2.4,5.8,2.4c-0.5,0-1,0.2-1.4,0.6L2.9,4.4
		C2.2,5.1,2.1,6.3,2.7,7c0,0,0.1,0.1,0.1,0.2l0,0l0,0l0,0l0,0l0.9,1.2C3.6,8.7,3.5,9,3.4,9.3L1.9,9.5c-0.1,0-0.3,0-0.4,0.1
		C0.6,9.8,0,10.6,0,11.5v2.1c0,1.1,0.8,1.9,1.9,2c0,0,0,0,0.1,0l1.5,0.2c0.1,0.3,0.2,0.6,0.4,0.9l-0.9,1.2c0,0-0.1,0.1-0.1,0.1
		c0,0,0,0.1-0.1,0.1C2.2,18.8,2.3,20,3,20.7l1.5,1.5c0.4,0.4,0.9,0.6,1.4,0.6c0.4,0,0.8-0.1,1.1-0.3c0.1-0.1,0.2-0.1,0.3-0.2
		l1.2-0.9c0.3,0.1,0.6,0.3,0.9,0.4l0.2,1.5c0,0.1,0,0.3,0.1,0.4c0.2,0.9,1,1.5,1.9,1.5h2.1c1.1,0,1.9-0.8,2-1.9c0,0,0,0,0-0.1
		l0.2-1.5c0.3-0.1,0.6-0.2,0.9-0.4l1.2,0.9c0,0,0.1,0.1,0.1,0.1c0,0,0.1,0,0.1,0.1c0.4,0.3,0.8,0.4,1.2,0.4c0.5,0,1-0.2,1.4-0.6
		l1.5-1.5c0.7-0.7,0.8-1.8,0.2-2.6c0-0.1-0.1-0.1-0.2-0.2l-0.9-1.2c0.1-0.3,0.3-0.6,0.4-0.9l1.5-0.2c0.1,0,0.3,0,0.4-0.1
		c0.9-0.2,1.5-1,1.5-1.9v-2.1c0-1.1-0.8-1.9-1.9-2c0,0,0,0-0.1,0l-1.5-0.2c-0.1-0.3-0.2-0.6-0.4-0.9l0.9-1.2c0,0,0.1-0.1,0.1-0.1
		c0,0,0-0.1,0.1-0.1c0.6-0.8,0.5-1.9-0.2-2.6l-1.5-1.5c-0.4-0.4-0.9-0.6-1.4-0.6c-0.4,0-0.8,0.1-1.2,0.4c0,0-0.1,0.1-0.2,0.1l0,0
		l0,0l0,0l0,0l-1.2,0.9c-0.3-0.1-0.6-0.3-0.9-0.4c-0.1-0.9-0.2-1.3-0.2-1.6C15.4,0.8,14.5,0,13.5,0L13.5,0z"/>
</g>
<g>
	<path class="st0" d="M12.5,9.3c1.8,0,3.3,1.5,3.3,3.3c0,1.8-1.5,3.3-3.3,3.3c-1.8,0-3.3-1.5-3.3-3.3C9.2,10.7,10.7,9.3,12.5,9.3
		 M12.5,7.3c-2.9,0-5.3,2.4-5.3,5.3s2.4,5.3,5.3,5.3s5.3-2.4,5.3-5.3S15.4,7.3,12.5,7.3L12.5,7.3z"/>
</g>
</svg>
