<?xml version="1.0" encoding="utf-8"?>
<!-- Generator: Adobe Illustrator 21.0.2, SVG Export Plug-In . SVG Version: 6.00 Build 0)  -->
<svg version="1.1" id="Layer_1" xmlns="http://www.w3.org/2000/svg" xmlns:xlink="http://www.w3.org/1999/xlink" x="0px" y="0px"
	 viewBox="0 0 44 44" style="enable-background:new 0 0 44 44;" xml:space="preserve">
<style type="text/css">
	.st0{fill-rule:evenodd;clip-rule:evenodd;fill:#444444;}
</style>
<g>
	<path class="st0" d="M22,44C9.8,44,0,34.2,0,22S9.8,0,22,0s22,9.8,22,22S34.2,44,22,44z M22,4C12.1,4,4,12.1,4,22s8.1,18,18,18
		s18-8.1,18-18S31.9,4,22,4z"/>
	<path class="st0" d="M16.5,15h1c0.8,0,1.5,0.7,1.5,1.5v11c0,0.8-0.7,1.5-1.5,1.5h-1c-0.8,0-1.5-0.7-1.5-1.5v-11
		C15,15.7,15.7,15,16.5,15z"/>
	<path class="st0" d="M26.5,15h1c0.8,0,1.5,0.7,1.5,1.5v11c0,0.8-0.7,1.5-1.5,1.5h-1c-0.8,0-1.5-0.7-1.5-1.5v-11
		C25,15.7,25.7,15,26.5,15z"/>
</g>
</svg>
