<?xml version="1.0" encoding="utf-8"?>
<!-- Generator: Adobe Illustrator 23.0.3, SVG Export Plug-In . SVG Version: 6.00 Build 0)  -->
<svg version="1.1" id="Layer_1" xmlns="http://www.w3.org/2000/svg" xmlns:xlink="http://www.w3.org/1999/xlink" x="0px" y="0px"
	 viewBox="0 0 13 13" style="enable-background:new 0 0 13 13;" xml:space="preserve">
<style type="text/css">
	.st0{fill:#303030;}
	.st1{fill-rule:evenodd;clip-rule:evenodd;fill:#303030;}
</style>
<g>
	<g>
		<path class="st0" d="M6.5,1c3,0,5.5,2.5,5.5,5.5S9.5,12,6.5,12S1,9.5,1,6.5S3.5,1,6.5,1 M6.5,0C2.9,0,0,2.9,0,6.5S2.9,13,6.5,13
			S13,10.1,13,6.5S10.1,0,6.5,0L6.5,0z"/>
	</g>
	<polygon class="st1" points="7,3 6,3 6,6 3,6 3,7 6,7 6,10 7,10 7,7 10,7 10,6 7,6 	"/>
</g>
</svg>
