<?xml version="1.0" encoding="utf-8"?>
<!-- Generator: Adobe Illustrator 24.0.1, SVG Export Plug-In . SVG Version: 6.00 Build 0)  -->
<svg version="1.1" id="Layer_1" xmlns="http://www.w3.org/2000/svg" xmlns:xlink="http://www.w3.org/1999/xlink" x="0px" y="0px"
	 viewBox="0 0 25 25" style="enable-background:new 0 0 25 25;" xml:space="preserve">
<style type="text/css">
	.st0{fill:#DDDDDD;}
</style>
<g>
	<path class="st0" d="M1,21.2h23v2H1V21.2z"/>
</g>
<g>
	<path class="st0" d="M16.2,4.1L17.9,5l-6.5,12.9L9.6,19l0-2L16.2,4.1 M15.9,1.8c-0.5,0-0.9,0.2-1.2,0.7L7.8,16.2
		c-0.1,0.2-0.2,0.4-0.2,0.7l0.1,4.8c0.1,0.2,0.2,0.3,0.4,0.4c0.1,0.1,0.2,0.1,0.3,0.1c0.1,0,0.2,0,0.3-0.1l4-2.7
		c0.2-0.1,0.3-0.3,0.4-0.5L20,5.3c0.3-0.7,0.1-1.4-0.6-1.8L16.5,2C16.3,1.9,16.1,1.8,15.9,1.8L15.9,1.8z"/>
</g>
</svg>
