<?xml version="1.0" encoding="utf-8"?>
<!-- Generator: Adobe Illustrator 21.1.0, SVG Export Plug-In . SVG Version: 6.00 Build 0)  -->
<svg version="1.1" id="Layer_1" xmlns="http://www.w3.org/2000/svg" xmlns:xlink="http://www.w3.org/1999/xlink" x="0px" y="0px"
	 viewBox="0 0 30 30" style="enable-background:new 0 0 30 30;" xml:space="preserve">
<style type="text/css">
	.st0{fill:#5D5D5D;}
	.st1{fill:none;stroke:#5D5D5D;stroke-width:2;stroke-linecap:round;stroke-miterlimit:10;}
</style>
<g>
	<g>
		<g>
			<g>
				<path class="st0" d="M13.9,5.8c4.4,0,8,3.6,8,8s-3.6,8-8,8s-8-3.6-8-8S9.5,5.8,13.9,5.8 M13.9,3.7C8.1,3.7,3.7,8.1,3.7,13.9
					S8.1,24,13.9,24S24,19.5,24,13.9S19.5,3.7,13.9,3.7L13.9,3.7z"/>
			</g>
		</g>
	</g>
</g>
<line class="st1" x1="22.6" y1="22.6" x2="26.5" y2="26.5"/>
<path class="st0" d="M17.9,12.9h-3v-3c0-0.6-0.4-1-1-1s-1,0.4-1,1v3h-3c-0.6,0-1,0.4-1,1s0.4,1,1,1h3v3c0,0.6,0.4,1,1,1s1-0.4,1-1
	v-3h3c0.6,0,1-0.4,1-1S18.4,12.9,17.9,12.9z"/>
</svg>
