<?xml version="1.0" encoding="utf-8"?>
<!-- Generator: Adobe Illustrator 24.0.1, SVG Export Plug-In . SVG Version: 6.00 Build 0)  -->
<svg version="1.1" id="Layer_1" xmlns="http://www.w3.org/2000/svg" xmlns:xlink="http://www.w3.org/1999/xlink" x="0px" y="0px"
	 viewBox="0 0 100 100" style="enable-background:new 0 0 100 100;" xml:space="preserve">
<style type="text/css">
	.st0{fill:#555555;}
</style>
<path class="st0" d="M50,54.1c-0.6,0-1.2-0.2-1.8-0.5L8.1,29C6.5,28,6,25.9,7,24.3c1-1.6,3.1-2.1,4.7-1.1L50,45.9l38.3-22.7
	c1.6-1,3.7-0.5,4.7,1.1c1,1.6,0.5,3.7-1.1,4.7L51.8,53.6C51.2,53.9,50.6,54.1,50,54.1z"/>
<path class="st0" d="M90.1,29.4c-0.6,0-1.2-0.2-1.8-0.5L50,7.4L11.7,28.8c-1.6,1-3.7,0.5-4.7-1.1C6,26.1,6.5,24,8.1,23L48.2,0.5
	c1.1-0.7,2.5-0.7,3.6,0L91.9,23c1.6,1,2.1,3.1,1.1,4.7C92.3,28.8,91.2,29.4,90.1,29.4z"/>
<path class="st0" d="M50,100c-0.6,0-1.2-0.2-1.8-0.5L8.1,72.9c-1-0.6-1.6-1.7-1.6-2.9V27.1c0-1.9,1.5-3.4,3.4-3.4s3.4,1.5,3.4,3.4
	V68L50,92.6l36.6-24.5v-41c0-1.9,1.5-3.4,3.4-3.4s3.4,1.5,3.4,3.4V70c0,1.2-0.6,2.3-1.6,2.9l-40,26.6C51.2,99.8,50.6,100,50,100z"/>
<path class="st0" d="M50,95.8c-1.9,0-3.4-1.5-3.4-3.4V50c0-1.9,1.5-3.4,3.4-3.4s3.4,1.5,3.4,3.4v42.4C53.4,94.3,51.9,95.8,50,95.8z"
	/>
</svg>
