<?xml version="1.0" encoding="utf-8"?>
<!-- Generator: Adobe Illustrator 24.0.1, SVG Export Plug-In . SVG Version: 6.00 Build 0)  -->
<svg version="1.1" id="Layer_1" xmlns="http://www.w3.org/2000/svg" xmlns:xlink="http://www.w3.org/1999/xlink" x="0px" y="0px"
	 viewBox="0 0 67 37" style="enable-background:new 0 0 67 37;" xml:space="preserve">
<style type="text/css">
	.st0{fill:#FFFFFF;}
	.st1{display:none;}
	.st2{display:inline;fill:#FFFFFF;}
	.st3{display:inline;}
	.st4{fill:#666666;}
	.st5{display:inline;fill:#666666;}
</style>
<g>
	<path class="st0" d="M26.9,26.9c-0.9,0-1.6,0.7-1.6,1.6s0.7,1.6,1.6,1.6c0.9,0,1.6-0.7,1.6-1.6S27.8,26.9,26.9,26.9z"/>
	<path class="st0" d="M28.9,23h-4.1c-0.4,0-0.8,0.4-0.8,0.8s0.4,0.8,0.8,0.8h4.1c0.5,0,0.8-0.4,0.8-0.8S29.3,23,28.9,23z"/>
	<path class="st0" d="M28.9,20.5h-4.1c-0.4,0-0.8,0.4-0.8,0.8s0.4,0.8,0.8,0.8h4.1c0.5,0,0.8-0.3,0.8-0.8
		C29.7,20.9,29.3,20.5,28.9,20.5z"/>
	<path class="st0" d="M29.9,32.6h-6.3c-0.4,0-0.7-0.3-0.7-0.7V19.4c0-0.4,0.3-0.7,0.7-0.7h6.3v-2h-6.3c-1.5,0-2.7,1.2-2.7,2.7v12.5
		c0,1.5,1.2,2.7,2.7,2.7h6.3V32.6z"/>
</g>
<g>
	<circle class="st0" cx="41.2" cy="28.8" r="1.6"/>
	<path class="st0" d="M43.2,24.9h-4.1c-0.4,0-0.8-0.4-0.8-0.8c0-0.4,0.4-0.8,0.8-0.8h4.1c0.4,0,0.8,0.4,0.8,0.8
		C44,24.5,43.7,24.9,43.2,24.9z"/>
	<path class="st0" d="M43.2,22.4h-4.1c-0.4,0-0.8-0.4-0.8-0.8c0-0.4,0.4-0.8,0.8-0.8h4.1c0.4,0,0.8,0.4,0.8,0.8
		C44,22.1,43.7,22.4,43.2,22.4z"/>
	<path class="st0" d="M44.4,17h-5.5v2h5.5c0.4,0,0.7,0.3,0.7,0.7v12.5c0,0.4-0.3,0.7-0.7,0.7h-5.5v2h5.5c1.5,0,2.7-1.2,2.7-2.7V19.7
		C47.2,18.2,45.9,17,44.4,17z"/>
</g>
<g class="st1">
	<polygon class="st2" points="17.6,19.5 18.6,18.6 25.9,17.7 28.9,19 28.9,16.6 30.1,15.9 38,15.9 39.3,18.3 40,19 42.7,17.7 
		48.8,18.6 50.2,19 50.8,24.1 49.8,32.6 49.4,34 46,35.5 41.6,35.5 38.6,34.1 36.9,34.9 30.1,35.1 28.8,33.7 26.7,34.7 23.5,35.5 
		17.9,34.1 17.2,32.2 	"/>
	<g class="st3">
		<path class="st4" d="M25,18.6c0.2,0,0.4,0,0.6,0.1l1.6,0.6c0.3,0.1,0.5,0.4,0.5,0.7v12.9c0,0.3-0.2,0.6-0.5,0.7l-1.6,0.6
			c-0.2,0.1-0.4,0.1-0.6,0.1c-0.1,0-0.2,0-0.2,0l-5.6-0.7c-0.4,0-0.6-0.4-0.6-0.7V20c0-0.4,0.3-0.7,0.6-0.7l5.6-0.7
			C24.8,18.6,24.9,18.6,25,18.6 M25,16.6c-0.2,0-0.3,0-0.5,0l-5.6,0.7c-1.4,0.2-2.4,1.3-2.4,2.7v12.7c0,1.4,1,2.5,2.4,2.7l5.6,0.7
			c0.2,0,0.3,0,0.5,0c0.4,0,0.9-0.1,1.3-0.2l1.6-0.6c1.1-0.4,1.8-1.4,1.8-2.6V19.9c0-1.2-0.7-2.2-1.8-2.6l-1.6-0.6
			C25.8,16.6,25.4,16.6,25,16.6L25,16.6z"/>
	</g>
	<g class="st3">
		<path class="st4" d="M37.3,16.8c0.4,0,0.7,0.3,0.7,0.7V33c0,0.4-0.3,0.7-0.7,0.7h-6.5c-0.4,0-0.7-0.3-0.7-0.7V17.5
			c0-0.4,0.3-0.7,0.7-0.7H37.3 M37.3,14.8h-6.5c-1.5,0-2.7,1.2-2.7,2.7V33c0,1.5,1.2,2.7,2.7,2.7h6.5c1.5,0,2.7-1.2,2.7-2.7V17.5
			C40.1,16,38.8,14.8,37.3,14.8L37.3,14.8z"/>
	</g>
	<path class="st5" d="M20,20.7l3.8-0.3c0.4,0,0.8,0.3,0.8,0.8c0,0.4-0.3,0.8-0.8,0.8L20,22.3c-0.4,0-0.8-0.3-0.8-0.8
		C19.3,21.1,19.6,20.7,20,20.7z"/>
	<path class="st5" d="M20,22.9l3.9-0.2c0.4,0,0.8,0.3,0.8,0.8c0,0.4-0.3,0.8-0.8,0.8L20,24.5c-0.4,0-0.8-0.3-0.8-0.8
		C19.3,23.3,19.6,23,20,22.9z"/>
	<path class="st5" d="M23.9,26.6H20c-0.4,0-0.8-0.4-0.8-0.8c0-0.4,0.4-0.8,0.8-0.8h3.9c0.4,0,0.8,0.4,0.8,0.8
		C24.7,26.3,24.4,26.6,23.9,26.6z"/>
	<circle class="st5" cx="34.1" cy="29.6" r="1.6"/>
	<path class="st5" d="M36.1,25.7H32c-0.4,0-0.8-0.4-0.8-0.8s0.4-0.8,0.8-0.8h4.1c0.4,0,0.8,0.4,0.8,0.8S36.6,25.7,36.1,25.7z"/>
	<path class="st5" d="M36.1,23.2H32c-0.4,0-0.8-0.4-0.8-0.8s0.4-0.8,0.8-0.8h4.1c0.4,0,0.8,0.4,0.8,0.8
		C36.9,22.9,36.6,23.2,36.1,23.2z"/>
	<path class="st5" d="M36.1,20.6H32c-0.4,0-0.8-0.4-0.8-0.8c0-0.4,0.4-0.8,0.8-0.8h4.1c0.4,0,0.8,0.4,0.8,0.8
		C36.9,20.2,36.6,20.6,36.1,20.6z"/>
	<g class="st3">
		<path class="st4" d="M43,18.6c0.1,0,0.2,0,0.2,0l5.6,0.7c0.4,0,0.6,0.4,0.6,0.7v12.7c0,0.4-0.3,0.7-0.6,0.7l-5.6,0.7
			c-0.1,0-0.2,0-0.2,0c-0.2,0-0.4,0-0.6-0.1l-1.6-0.6c-0.3-0.1-0.5-0.4-0.5-0.7V19.9c0-0.3,0.2-0.6,0.5-0.7l1.6-0.6
			C42.6,18.6,42.8,18.6,43,18.6 M43,16.6c-0.4,0-0.9,0.1-1.3,0.2l-1.6,0.6c-1.1,0.4-1.8,1.4-1.8,2.6v12.9c0,1.2,0.7,2.2,1.8,2.6
			l1.6,0.6c0.4,0.1,0.8,0.2,1.3,0.2c0.2,0,0.3,0,0.5,0l5.6-0.7c1.4-0.2,2.4-1.3,2.4-2.7V20c0-1.4-1-2.5-2.4-2.7l-5.6-0.7
			C43.4,16.6,43.2,16.6,43,16.6L43,16.6z"/>
	</g>
	<path class="st5" d="M48.7,21.5c0,0.4-0.4,0.8-0.8,0.8L44.1,22c-0.4,0-0.8-0.4-0.8-0.8c0-0.4,0.4-0.8,0.8-0.8l3.8,0.3
		C48.4,20.7,48.7,21.1,48.7,21.5z"/>
	<path class="st5" d="M48.7,23.8c0,0.4-0.4,0.8-0.8,0.8L44,24.3c-0.4,0-0.8-0.4-0.8-0.8c0-0.4,0.4-0.8,0.8-0.8l3.9,0.2
		C48.4,23,48.7,23.3,48.7,23.8z"/>
	<path class="st5" d="M43.3,25.8c0-0.4,0.4-0.8,0.8-0.8H48c0.4,0,0.8,0.4,0.8,0.8c0,0.4-0.4,0.8-0.8,0.8h-3.9
		C43.6,26.6,43.3,26.3,43.3,25.8z"/>
</g>
<g>
	<g>
		<path class="st0" d="M37.2,16.4c0.4,0,0.7,0.3,0.7,0.7v15.5c0,0.4-0.3,0.7-0.7,0.7h-6.5c-0.4,0-0.7-0.3-0.7-0.7V17.1
			c0-0.4,0.3-0.7,0.7-0.7H37.2 M37.2,14.4h-6.5c-1.5,0-2.7,1.2-2.7,2.7v15.5c0,1.5,1.2,2.7,2.7,2.7h6.5c1.5,0,2.7-1.2,2.7-2.7V17.1
			C40,15.6,38.7,14.4,37.2,14.4L37.2,14.4z"/>
	</g>
	<circle class="st0" cx="34" cy="29.2" r="1.6"/>
	<path class="st0" d="M36,25.3h-4.1c-0.4,0-0.8-0.4-0.8-0.8c0-0.4,0.4-0.8,0.8-0.8H36c0.4,0,0.8,0.4,0.8,0.8
		C36.8,24.9,36.5,25.3,36,25.3z"/>
	<path class="st0" d="M36,22.8h-4.1c-0.4,0-0.8-0.4-0.8-0.8c0-0.4,0.4-0.8,0.8-0.8H36c0.4,0,0.8,0.4,0.8,0.8
		C36.8,22.5,36.5,22.8,36,22.8z"/>
	<path class="st0" d="M36,20.2h-4.1c-0.4,0-0.8-0.4-0.8-0.8c0-0.4,0.4-0.8,0.8-0.8H36c0.4,0,0.8,0.4,0.8,0.8
		C36.8,19.8,36.5,20.2,36,20.2z"/>
</g>
<path class="st0" d="M45.5,12.7C45.5,12.7,45.5,12.6,45.5,12.7c0-5.5-4.5-10-10-10c-4.3,0-8,2.7-9.4,6.6c-0.2,0-0.3,0-0.5,0
	c-3.4,0-6.2,2.6-6.5,6c-4.1,0.6-7.2,4.1-7.2,8.3c0,4.6,3.7,8.4,8.4,8.4h1.5v-2h-1.5c-3.5,0-6.4-2.9-6.4-6.4c0-3.5,2.8-6.4,6.4-6.4
	c0,0,0,0,0,0c0.2,0,0.5-0.1,0.6-0.3c0.2-0.2,0.2-0.4,0.2-0.7c0-0.1,0-0.3,0-0.4c0-2.5,2-4.6,4.5-4.6c0.4,0,0.7,0,1.1,0.1
	c0.1,0,0.1,0,0.2,0c0.4,0,0.7-0.3,0.8-0.7c0.9-3.6,4.1-6.1,7.7-6.1c4.4,0,8,3.6,8,8c0,0.3,0,0.5,0,0.8c0,0.4,0.2,0.8,0.6,0.9
	c3.5,0.9,5.9,4.1,5.9,7.6c0,2.9-1.6,5.5-4,6.9V31c3.5-1.5,6-5,6-9.1C52,17.8,49.4,14.1,45.5,12.7z"/>
</svg>
