<?xml version="1.0" encoding="utf-8"?>
<!-- Generator: Adobe Illustrator 21.1.0, SVG Export Plug-In . SVG Version: 6.00 Build 0)  -->
<svg version="1.1" id="Layer_1" xmlns="http://www.w3.org/2000/svg" xmlns:xlink="http://www.w3.org/1999/xlink" x="0px" y="0px"
	 viewBox="0 0 10 10" style="enable-background:new 0 0 10 10;" xml:space="preserve">
<style type="text/css">
	.st0{fill:#5D5D5D;}
</style>
<g>
	<path class="st0" d="M1,4C0.4,4,0,3.6,0,3V2c0-1.2,0.8-2,2-2h1c0.6,0,1,0.4,1,1S3.6,2,3,2H2v1C2,3.6,1.6,4,1,4z"/>
	<path class="st0" d="M9,4C8.4,4,8,3.6,8,3V2H7C6.4,2,6,1.6,6,1s0.4-1,1-1h1c1.2,0,2,0.8,2,2v1C10,3.6,9.6,4,9,4z"/>
	<path class="st0" d="M3,10H2c-1.2,0-2-0.8-2-2V7c0-0.6,0.4-1,1-1s1,0.4,1,1v1h1c0.6,0,1,0.4,1,1S3.6,10,3,10z"/>
	<path class="st0" d="M8,10H7c-0.6,0-1-0.4-1-1s0.4-1,1-1h1V7c0-0.6,0.4-1,1-1s1,0.4,1,1v1C10,9.2,9.2,10,8,10z"/>
</g>
</svg>
