<?xml version="1.0" encoding="utf-8"?>
<!-- Generator: Adobe Illustrator 24.0.1, SVG Export Plug-In . SVG Version: 6.00 Build 0)  -->
<svg version="1.1" id="Layer_1" xmlns="http://www.w3.org/2000/svg" xmlns:xlink="http://www.w3.org/1999/xlink" x="0px" y="0px"
	 viewBox="0 0 100 100" style="enable-background:new 0 0 100 100;" xml:space="preserve">
<style type="text/css">
	.st0{fill:#FFFFFF;}
</style>
<path class="st0" d="M95,44.2c0-2.6-0.7-5.3-2-7.6c-0.1-0.1-0.1-0.2-0.2-0.3L76.4,13.1c-0.6-0.8-1.5-1.3-2.5-1.3H26.1
	c-1,0-1.9,0.5-2.5,1.3L7.2,36.3C7.1,36.4,7,36.5,7,36.6c-1.3,2.3-2,4.9-2,7.6c0,4.5,2,8.5,5.1,11.4v41.4c0,1.7,1.4,3.1,3.1,3.1h73.7
	c1.7,0,3.1-1.4,3.1-3.1V55.5C93,52.7,95,48.7,95,44.2z M16.2,58.9c1.3,0.4,2.7,0.6,4.2,0.6c0.5,0,1-0.1,1.5-0.1V81
	c0,1.7,1.4,3.1,3.1,3.1h19.5c1.7,0,3.1-1.4,3.1-3.1V57.7c0.9-0.5,1.7-1,2.5-1.7c0.8,0.6,1.6,1.2,2.5,1.7V81c0,1.7,1.4,3.1,3.1,3.1
	H75c1.7,0,3.1-1.4,3.1-3.1V59.4c0.5,0,1,0.1,1.5,0.1c1.4,0,2.8-0.3,4.2-0.6v34.9H16.2V58.9z M28,57.5c0.8-0.5,1.5-1,2.2-1.5
	c2.8,2.3,6.2,3.6,9.9,3.6c0.4,0,0.8-0.1,1.3-0.1v18.5H28V57.5z M58.6,59.5c0.4,0,0.8,0.1,1.3,0.1c3.6,0,7.1-1.3,9.9-3.6
	c0.7,0.6,1.4,1.1,2.2,1.5v20.4H58.6V59.5z M79.6,53.5c-2.9,0-5.6-1.4-7.4-3.7c-0.6-0.8-1.5-1.2-2.4-1.2s-1.9,0.5-2.4,1.2
	c-1.8,2.4-4.5,3.7-7.4,3.7c-2.9,0-5.6-1.4-7.4-3.7C51.9,49,51,48.5,50,48.5s-1.9,0.5-2.5,1.2c-1.8,2.4-4.5,3.7-7.4,3.7
	c-2.9,0-5.6-1.4-7.4-3.7c-0.6-0.8-1.5-1.2-2.5-1.2c-1,0-1.9,0.5-2.5,1.2c-1.8,2.4-4.5,3.7-7.4,3.7c-4.9,0-8.9-3.9-9.2-8.7h77.6
	C88.5,49.6,84.5,53.5,79.6,53.5z M13.1,38.6L27.7,18h44.6L87,38.6C87,38.6,13.1,38.6,13.1,38.6z"/>
<path class="st0" d="M28.1,6.1h43.8c1.7,0,3.1-1.3,3.1-3s-1.4-3-3.1-3H28.1c-1.7,0-3.1,1.3-3.1,3C25,4.7,26.4,6.1,28.1,6.1z"/>
</svg>
