<?xml version="1.0" encoding="utf-8"?>
<!-- Generator: Adobe Illustrator 21.0.2, SVG Export Plug-In . SVG Version: 6.00 Build 0)  -->
<svg version="1.1" id="Layer_1" xmlns="http://www.w3.org/2000/svg" xmlns:xlink="http://www.w3.org/1999/xlink" x="0px" y="0px"
	 viewBox="0 0 34 24" style="enable-background:new 0 0 34 24;" xml:space="preserve">
<style type="text/css">
	.st0{fill:#444444;}
	.st1{fill:none;stroke:#444444;stroke-miterlimit:10;}
</style>
<g>
	<path class="st0" d="M6.6,6.6H1.7C0.8,6.6,0,7.4,0,8.3v7.4c0,0.9,0.8,1.7,1.7,1.7h4.9V6.6z"/>
	<path class="st0" d="M15.5,0.8L8.8,6.4C8.7,6.4,8.6,6.5,8.5,6.5v11c0.1,0,0.2,0.1,0.3,0.1l6.7,5.6c1.1,0.7,2.5-0.1,2.5-1.4V2.2
		C18,0.9,16.6,0.1,15.5,0.8z"/>
</g>
<path class="st1" d="M20.7,16.8c2.6-2.6,2.6-6.9,0-9.5"/>
<path class="st1" d="M23.5,20.5c4.7-4.7,4.7-12.2,0-16.9"/>
<path class="st1" d="M26.7,23.5c6.2-6.2,6.2-16.3,0-22.5"/>
</svg>
