<?xml version="1.0" encoding="utf-8"?>
<!-- Generator: Adobe Illustrator 26.0.1, SVG Export Plug-In . SVG Version: 6.00 Build 0)  -->
<svg version="1.1" id="Layer_1" xmlns="http://www.w3.org/2000/svg" xmlns:xlink="http://www.w3.org/1999/xlink" x="0px" y="0px"
	 viewBox="0 0 40 40" style="enable-background:new 0 0 40 40;" xml:space="preserve">
<style type="text/css">
	.st0{fill:#B30B00;}
	.st1{fill:#FFFFFF;}
</style>
<g id="Surfaces">
	<g id="Reader_Surface">
		<g id="Outline_no_shadow_copy_2">
			<path class="st0" d="M13.5,10.3h12.9c1.9,0,3.5,1.6,3.5,3.5v12.4c0,2-1.6,3.5-3.5,3.5H13.5c-1.9,0-3.5-1.6-3.5-3.5V13.8
				C10,11.9,11.6,10.3,13.5,10.3z"/>
		</g>
	</g>
</g>
<g id="Outlined_Mnemonics_Logos">
	<g id="DC_Trefoil">
		<path id="_256" class="st1" d="M26.1,21.6c-0.4-0.4-1.2-0.6-2.3-0.6c-0.6,0-1.2,0.1-1.8,0.2c-0.4-0.4-0.7-0.8-1.1-1.2
			c-0.2-0.3-0.5-0.7-0.7-1c0.3-0.9,0.5-1.9,0.6-2.9c0-0.9-0.4-1.9-1.4-1.9c-0.3,0-0.7,0.2-0.8,0.5c-0.4,0.7-0.3,2.2,0.4,3.8
			c-0.2,0.7-0.5,1.4-0.8,2.2c-0.3,0.7-0.6,1.3-0.9,1.9c-1,0.4-3.2,1.4-3.4,2.5c-0.1,0.3,0,0.7,0.3,0.9c0.2,0.2,0.6,0.3,0.9,0.3
			c1.3,0,2.6-1.8,3.5-3.4c0.5-0.2,1-0.3,1.5-0.5c0.6-0.1,1.1-0.3,1.6-0.4c1.4,1.2,2.6,1.4,3.2,1.4c0.8,0,1.2-0.4,1.3-0.7
			C26.4,22.2,26.3,21.8,26.1,21.6z M25.2,22.2c0,0.2-0.3,0.4-0.6,0.4c-0.1,0-0.2,0-0.3,0c-0.7-0.2-1.3-0.5-1.8-0.9
			c0.4-0.1,0.9-0.1,1.3-0.1c0.3,0,0.6,0,0.9,0.1C24.9,21.7,25.3,21.8,25.2,22.2z M19.2,14.8c0.1-0.1,0.2-0.2,0.3-0.2
			c0.3,0,0.4,0.4,0.4,0.7c0,0.8-0.2,1.5-0.4,2.2C18.9,16.1,19,15.2,19.2,14.8z M21.1,21.2c-0.4,0.1-0.7,0.2-1.1,0.3
			c-0.3,0.1-0.5,0.2-0.8,0.2c0.1-0.3,0.3-0.6,0.4-0.9c0.2-0.4,0.3-0.7,0.4-1.1c0.1,0.2,0.2,0.4,0.4,0.5
			C20.6,20.6,20.8,20.9,21.1,21.2L21.1,21.2z M17,23.2c-0.8,1.3-1.7,2.2-2.1,2.2c-0.1,0-0.2,0-0.2-0.1c-0.1-0.1-0.1-0.2-0.1-0.3
			C14.7,24.5,15.6,23.8,17,23.2L17,23.2z"/>
	</g>
</g>
</svg>
