<?xml version="1.0" encoding="utf-8"?>
<!-- Generator: Adobe Illustrator 26.0.1, SVG Export Plug-In . SVG Version: 6.00 Build 0)  -->
<svg version="1.1" id="Layer_1" xmlns="http://www.w3.org/2000/svg" xmlns:xlink="http://www.w3.org/1999/xlink" x="0px" y="0px"
	 viewBox="0 0 40 40" style="enable-background:new 0 0 40 40;" xml:space="preserve">
<style type="text/css">
	.st0{fill:#FFFFFF;}
</style>
<g>
	<circle cx="20" cy="20" r="10"/>
	<g>
		<path class="st0" d="M17.5,15.9v7c-0.3-0.3-0.8-0.5-1.2-0.5c-1,0-1.7,0.7-1.7,1.5c0,0.9,0.8,1.5,1.7,1.5c0.9,0,1.7-0.7,1.7-1.5
			v-6.7l5.1-1.2v5.5c-0.3-0.3-0.8-0.5-1.2-0.5c-1,0-1.7,0.7-1.7,1.5s0.8,1.5,1.7,1.5c1,0,1.7-0.7,1.7-1.5v-0.5v-7.8L17.5,15.9z"/>
	</g>
</g>
</svg>
