<?xml version="1.0" encoding="utf-8"?>
<!-- Generator: Adobe Illustrator 26.0.1, SVG Export Plug-In . SVG Version: 6.00 Build 0)  -->
<svg version="1.1" id="Layer_1" xmlns="http://www.w3.org/2000/svg" xmlns:xlink="http://www.w3.org/1999/xlink" x="0px" y="0px"
	 viewBox="0 0 40 40" style="enable-background:new 0 0 40 40;" xml:space="preserve">
<style type="text/css">
	.st0{fill:#330000;}
	.st1{fill:#FF9A00;}
</style>
<g id="Layer_2_00000055677289776965615290000000095736482888503225_">
	<g id="Surfaces">
		<g id="Drawing_Surface">
			<g id="Outline_no_shadow">
				<path class="st0" d="M13.5,10.4h12.9c2,0,3.5,1.6,3.5,3.5v12.2c0,2-1.6,3.5-3.5,3.5H13.5c-2,0-3.5-1.6-3.5-3.5V13.9
					C10,11.9,11.6,10.4,13.5,10.4z"/>
			</g>
		</g>
	</g>
	<g id="Outlined_Mnemonics_Logos">
		<g id="Ai">
			<path class="st1" d="M19.7,21.8h-3.1l-0.6,2c0,0.1-0.1,0.1-0.2,0.1h-1.5c-0.1,0-0.1,0-0.1-0.1l2.6-7.6c0-0.1,0.1-0.2,0.1-0.3
				c0-0.1,0.1-0.3,0.1-0.5c0,0,0-0.1,0.1-0.1c0,0,0,0,0,0h2.1c0.1,0,0.1,0,0.1,0.1l3,8.4c0,0.1,0,0.1-0.1,0.1h-1.7
				c-0.1,0-0.1,0-0.1-0.1L19.7,21.8z M17.1,20.4h2.2c-0.1-0.2-0.2-0.6-0.3-0.8c-0.1-0.2-0.2-0.4-0.2-0.6c-0.1-0.3-0.2-0.5-0.2-0.8
				c-0.1-0.3-0.2-0.5-0.2-0.7c-0.1-0.2-0.1-0.4-0.2-0.6h0c-0.1,0.4-0.2,0.7-0.3,1.1c-0.1,0.4-0.2,0.8-0.4,1.2
				C17.4,19.5,17.2,20,17.1,20.4L17.1,20.4z"/>
			<path class="st1" d="M24.1,16.7c-0.3,0-0.5-0.1-0.7-0.3c-0.2-0.2-0.3-0.5-0.3-0.8c0-0.3,0.1-0.5,0.3-0.7c0.2-0.2,0.5-0.3,0.7-0.3
				c0.3,0,0.5,0.1,0.7,0.3c0.2,0.2,0.3,0.5,0.3,0.7c0,0.3-0.1,0.6-0.3,0.8C24.6,16.6,24.4,16.7,24.1,16.7z M23.2,23.7v-6
				c0-0.1,0-0.1,0.1-0.1h1.5c0.1,0,0.1,0,0.1,0.1v6c0,0.1,0,0.1-0.1,0.1h-1.5C23.3,23.9,23.2,23.8,23.2,23.7z"/>
		</g>
	</g>
</g>
</svg>
