<?xml version="1.0" encoding="utf-8"?>
<!-- Generator: Adobe Illustrator 26.0.1, SVG Export Plug-In . SVG Version: 6.00 Build 0)  -->
<svg version="1.1" id="Layer_1" xmlns="http://www.w3.org/2000/svg" xmlns:xlink="http://www.w3.org/1999/xlink" x="0px" y="0px"
	 viewBox="0 0 40 40" style="enable-background:new 0 0 40 40;" xml:space="preserve">
<style type="text/css">
	.st0{fill:#001E36;}
	.st1{fill:#31A8FF;}
</style>
<g id="Layer_2_00000094612668034178680020000015407787482462876580_">
	<g id="Surfaces_00000179604020106728844590000013385229167306717597_">
		<g id="Photo_Surface">
			<g id="Outline_no_shadow_00000173839558741621014630000013267901334831221416_">
				<path class="st0" d="M13.5,10.4h12.9c2,0,3.5,1.6,3.5,3.5v12.2c0,2-1.6,3.5-3.5,3.5H13.5c-2,0-3.5-1.6-3.5-3.5V13.9
					C10,11.9,11.6,10.4,13.5,10.4z"/>
			</g>
		</g>
	</g>
	<g id="Outlined_Mnemonics_Logos_00000159466409624290780820000004143210645570706311_">
		<g id="Ps">
			<path class="st1" d="M14.2,23.8v-8.4c0-0.1,0-0.1,0.1-0.1c0.1,0,0.3,0,0.5,0c0.2,0,0.4,0,0.6,0c0.2,0,0.5,0,0.7,0
				c0.3,0,0.5,0,0.7,0c0.6,0,1.1,0.1,1.7,0.3c0.4,0.1,0.8,0.4,1.1,0.7c0.3,0.3,0.5,0.6,0.6,0.9c0.1,0.3,0.2,0.7,0.2,1.1
				c0,0.6-0.1,1.2-0.5,1.7c-0.3,0.5-0.8,0.8-1.3,1c-0.6,0.2-1.2,0.3-1.9,0.3c-0.2,0-0.3,0-0.4,0c-0.1,0-0.2,0-0.4,0v2.6
				c0,0.1,0,0.1-0.1,0.1c0,0,0,0,0,0h-1.6C14.2,23.9,14.2,23.9,14.2,23.8z M16,16.9v2.7c0.1,0,0.2,0,0.3,0h0.4c0.3,0,0.6,0,0.9-0.1
				c0.3-0.1,0.5-0.2,0.7-0.4c0.2-0.2,0.3-0.5,0.3-0.8c0-0.3-0.1-0.5-0.2-0.7c-0.1-0.2-0.3-0.4-0.6-0.5c-0.3-0.1-0.6-0.2-1-0.2
				c-0.2,0-0.4,0-0.6,0C16.2,16.9,16,16.9,16,16.9z"/>
			<path class="st1" d="M25.5,19.1c-0.3-0.1-0.6-0.2-1-0.3c-0.3-0.1-0.6-0.1-0.9-0.1c-0.2,0-0.3,0-0.5,0.1c-0.1,0-0.2,0.1-0.3,0.2
				c0,0.1-0.1,0.1-0.1,0.2c0,0.1,0,0.2,0.1,0.2c0.1,0.1,0.2,0.2,0.3,0.2c0.2,0.1,0.4,0.2,0.6,0.3c0.4,0.1,0.9,0.4,1.3,0.6
				c0.3,0.2,0.5,0.4,0.6,0.7c0.1,0.3,0.2,0.6,0.2,0.8c0,0.4-0.1,0.8-0.3,1.1c-0.2,0.3-0.5,0.6-0.9,0.7c-0.5,0.2-1,0.3-1.5,0.3
				c-0.4,0-0.7,0-1.1-0.1c-0.3-0.1-0.6-0.1-0.9-0.3c-0.1,0-0.1-0.1-0.1-0.2v-1.4c0,0,0-0.1,0-0.1c0,0,0.1,0,0.1,0
				c0.3,0.2,0.7,0.3,1.1,0.4c0.3,0.1,0.6,0.1,1,0.1c0.2,0,0.5,0,0.7-0.1c0.1-0.1,0.2-0.2,0.2-0.3c0-0.1-0.1-0.3-0.2-0.3
				c-0.3-0.2-0.5-0.3-0.8-0.4c-0.4-0.1-0.8-0.3-1.2-0.6c-0.3-0.2-0.5-0.4-0.6-0.7c-0.1-0.3-0.2-0.5-0.2-0.8c0-0.3,0.1-0.7,0.3-1
				c0.2-0.3,0.5-0.6,0.9-0.8c0.4-0.2,0.9-0.3,1.3-0.3c0.4,0,0.7,0,1.1,0c0.3,0.1,0.6,0.2,0.9,0.3c0,0,0.1,0,0.1,0.1c0,0,0,0.1,0,0.1
				V19C25.7,19,25.7,19.1,25.5,19.1C25.6,19.1,25.6,19.1,25.5,19.1z"/>
		</g>
	</g>
</g>
</svg>
