<?xml version="1.0" encoding="utf-8"?>
<!-- Generator: Adobe Illustrator 26.0.1, SVG Export Plug-In . SVG Version: 6.00 Build 0)  -->
<svg version="1.1" id="Layer_1" xmlns="http://www.w3.org/2000/svg" xmlns:xlink="http://www.w3.org/1999/xlink" x="0px" y="0px"
	 viewBox="0 0 17 17" style="enable-background:new 0 0 17 17;" xml:space="preserve">
<path d="M9.8,7.2L8.6,4.7L7.4,7.2L6.2,6.7l1.6-3h1.6l1.6,3.1L9.8,7.2z M9.6,11h2.7l-1.6-2.2l0.9-0.9l2,2.8L13,12.1H9.5L9.6,11z
	 M6.6,8.9L5,11.1L7.7,11l0.2,1.3H4.5l-0.8-1.4l2-2.8L6.6,8.9z M16.3,1.3l-2.6,14.3H3.3L0.7,1.3H16.3 M16.3,0.6H0.7
	c-0.2,0-0.4,0.1-0.6,0.2C0,1.1,0,1.3,0,1.5l2.5,14.3c0.1,0.4,0.4,0.6,0.7,0.6h10.4c0.4,0,0.6-0.2,0.7-0.6L17,1.5
	c0.1-0.2,0-0.4-0.1-0.6C16.7,0.7,16.5,0.6,16.3,0.6L16.3,0.6z"/>
</svg>
